<svg width="74" height="57" viewBox="0 0 74 57" fill="none" xmlns="http://www.w3.org/2000/svg">
<path d="M45.9874 45.0286L71.9894 26.3304C72.6019 25.968 73.1094 25.4519 73.462 24.8331C73.8146 24.2143 74 23.5142 74 22.8017C74 22.0893 73.8146 21.3891 73.462 20.7703C73.1094 20.1516 72.6019 19.6355 71.9894 19.273L45.9874 0.563458C45.3676 0.19834 44.6623 0.00396473 43.9432 6.00127e-05C43.2241 -0.00384471 42.5168 0.18286 41.893 0.541225C41.2693 0.899589 40.7513 1.41685 40.3917 2.04051C40.0321 2.66416 39.8437 3.372 39.8455 4.09217V11.3947C31.3072 11.3947 5.69222 11.3947 1.854e-06 57C14.2305 31.347 39.8455 34.1974 39.8455 34.1974V41.4999C39.8455 44.6923 43.295 46.6191 45.9874 45.0343V45.0286Z" fill="#E9650B"/>
</svg>
