<svg width="74" height="57" viewBox="0 0 74 57" fill="none" xmlns="http://www.w3.org/2000/svg">
<path d="M28.0126 45.0286L2.01057 26.3304C1.39811 25.968 0.890575 25.4519 0.538002 24.8331C0.18543 24.2143 0 23.5142 0 22.8017C0 22.0893 0.18543 21.3891 0.538002 20.7703C0.890575 20.1516 1.39811 19.6355 2.01057 19.273L28.0126 0.563458C28.6324 0.19834 29.3377 0.00396473 30.0568 6.00127e-05C30.7759 -0.00384471 31.4832 0.18286 32.107 0.541225C32.7307 0.899589 33.2487 1.41685 33.6083 2.04051C33.9679 2.66416 34.1563 3.372 34.1545 4.09217V11.3947C42.6928 11.3947 68.3078 11.3947 74 57C59.7695 31.347 34.1545 34.1974 34.1545 34.1974V41.4999C34.1545 44.6923 30.705 46.6191 28.0126 45.0343V45.0286Z" fill="#E9650B"/>
</svg>
