<?xml version="1.0" standalone="no"?>
<!DOCTYPE svg PUBLIC "-//W3C//DTD SVG 20010904//EN"
 "http://www.w3.org/TR/2001/REC-SVG-20010904/DTD/svg10.dtd">
<svg version="1.0" xmlns="http://www.w3.org/2000/svg"
 width="530.000000pt" height="470.000000pt" viewBox="0 0 530.000000 470.000000"
 preserveAspectRatio="xMidYMid meet">

<g transform="translate(0.000000,470.000000) scale(0.100000,-0.100000)"
fill="#000000" stroke="none">
<path d="M1827 4610 c-44 -13 -95 -57 -117 -100 -39 -76 -20 -191 39 -244 12
-11 21 -22 21 -25 0 -4 -24 -17 -52 -31 -90 -41 -265 -148 -355 -216 -422
-318 -715 -778 -817 -1284 -36 -174 -46 -280 -46 -465 1 -371 69 -695 205
-965 57 -114 151 -262 206 -325 31 -35 32 -36 16 -73 -9 -20 -29 -75 -46 -122
-16 -47 -68 -192 -115 -323 -47 -130 -86 -243 -86 -250 0 -16 31 -47 47 -47 5
0 171 77 369 171 197 94 371 175 386 181 23 8 38 1 140 -68 212 -145 470 -252
708 -296 108 -20 158 -23 370 -23 216 0 258 3 360 23 551 112 1081 468 1392
937 371 560 465 1243 256 1875 -105 319 -283 605 -528 850 -164 164 -322 281
-517 385 -40 21 -73 42 -73 46 0 4 15 17 33 28 45 28 87 106 87 162 -1 148
-155 250 -285 190 -96 -44 -149 -157 -115 -247 10 -25 9 -26 -17 -21 -16 2
-64 14 -108 25 -190 49 -257 57 -530 57 -234 0 -272 -3 -380 -24 -66 -13 -134
-26 -150 -28 l-30 -5 -1 60 c-2 139 -132 232 -267 192z m113 -85 c65 -34 89
-109 55 -175 -21 -41 -100 -67 -147 -47 -47 20 -70 50 -75 99 -5 52 11 85 56
115 39 27 71 29 111 8z m1615 1 c44 -19 68 -57 69 -110 3 -110 -127 -165 -205
-87 -58 58 -42 157 31 193 42 22 60 22 105 4z m-559 -185 c60 -10 138 -26 174
-35 73 -19 270 -85 285 -97 6 -4 9 -50 7 -113 l-3 -106 -72 39 c-200 109 -413
156 -712 156 -318 -1 -467 -35 -737 -173 -5 -2 -8 42 -8 97 l0 101 37 15 c21
9 47 25 59 36 33 31 212 73 404 95 151 17 422 10 566 -15z m-1146 -264 l0
-124 -99 -76 c-126 -99 -196 -173 -251 -266 -41 -68 -44 -80 -43 -135 1 -34
-5 -93 -13 -133 -8 -43 -14 -130 -14 -216 0 -114 -3 -147 -14 -157 -8 -6 -22
-33 -31 -60 -9 -27 -23 -54 -31 -61 -28 -23 -45 -70 -51 -139 l-6 -69 -19 24
c-39 50 -90 40 -109 -23 -13 -44 2 -116 25 -125 8 -3 20 -32 26 -64 19 -92 60
-214 87 -263 57 -100 154 -191 278 -261 30 -17 74 -57 110 -100 58 -70 140
-141 207 -180 113 -66 268 -119 348 -119 21 0 52 -3 69 -6 l32 -7 -3 -101 -3
-101 -74 -7 c-373 -38 -674 -297 -775 -669 l-23 -84 -219 -105 c-532 -255
-513 -247 -499 -212 4 9 26 71 50 137 65 183 175 487 185 513 16 37 12 47 -33
104 -205 255 -324 539 -378 901 -26 176 -28 495 -4 663 98 686 521 1274 1144
1591 57 29 110 53 117 53 11 0 14 -26 14 -123z m1972 -64 c433 -290 754 -747
876 -1243 48 -192 56 -265 56 -505 0 -243 -8 -306 -60 -516 -108 -437 -373
-847 -727 -1127 -83 -65 -97 -72 -97 -46 0 29 -41 156 -68 214 -139 293 -412
489 -722 518 l-75 7 -3 102 -3 101 88 6 c247 18 449 115 603 292 64 74 133
184 162 261 13 34 30 58 42 63 34 13 84 72 101 119 8 24 28 58 44 77 38 43 44
84 40 286 -4 150 -6 166 -27 201 -13 20 -28 37 -33 37 -5 0 -11 12 -15 28 -3
15 -17 46 -31 69 -22 40 -23 50 -17 130 5 64 1 120 -12 203 -10 63 -18 144
-18 180 -1 56 -6 74 -39 132 -50 89 -121 165 -244 260 l-103 80 0 107 c0 59 3
111 7 114 9 10 161 -73 275 -150z m-857 86 c197 -31 338 -87 518 -205 194
-127 297 -225 353 -336 27 -53 31 -90 10 -107 -23 -19 -44 -2 -77 60 -68 128
-207 244 -439 367 -201 107 -394 152 -655 152 -335 0 -541 -66 -818 -263 -111
-79 -186 -157 -242 -253 -42 -71 -57 -83 -80 -64 -24 20 -18 58 19 124 48 86
92 133 209 228 123 99 228 168 322 213 206 98 575 133 880 84z m-73 -149 c24
-5 88 -19 142 -32 251 -56 607 -290 685 -451 23 -47 38 -64 74 -82 27 -13 45
-109 46 -239 l1 -88 -35 6 c-39 8 -88 -13 -105 -43 -13 -25 -25 -572 -15 -735
7 -120 9 -131 33 -152 14 -13 36 -24 48 -24 34 0 31 -24 -15 -102 -130 -222
-300 -351 -541 -410 -42 -10 -163 -13 -510 -13 -518 0 -535 2 -695 80 -82 40
-233 150 -222 162 3 2 48 -9 101 -26 53 -17 103 -31 111 -31 8 0 15 -7 15 -15
0 -8 8 -18 18 -24 22 -11 154 -34 207 -35 37 -1 39 1 48 37 13 52 0 63 -93 77
-132 21 -152 22 -161 13 -6 -6 -40 1 -92 19 -95 34 -227 85 -243 96 -12 7 -62
89 -82 134 -11 27 -10 29 23 42 65 27 65 30 65 471 0 436 0 439 -61 470 -19
10 -41 14 -59 10 -27 -6 -29 -4 -36 31 -6 35 9 234 21 264 3 8 19 23 35 32 17
10 38 31 48 49 65 117 129 188 247 270 277 193 442 245 782 248 95 0 192 -3
215 -9z m-1264 -1345 c1 -214 0 -400 -3 -412 -7 -29 -32 -29 -90 -2 -58 27
-82 59 -91 116 -5 33 -12 47 -26 51 -40 10 -48 50 -48 237 0 173 0 176 25 200
13 14 28 25 33 25 5 0 12 19 15 42 3 23 14 53 25 67 27 37 91 72 127 69 l30
-3 3 -390z m2203 384 c63 -21 109 -80 109 -139 0 -19 5 -30 14 -30 8 0 24 -12
35 -26 19 -25 21 -40 21 -206 0 -190 -5 -213 -46 -228 -19 -7 -24 -17 -24 -42
0 -63 -60 -128 -133 -144 -58 -12 -57 -18 -57 406 0 214 3 395 6 404 7 19 29
20 75 5z m-2508 -626 c8 -15 24 -37 36 -47 12 -11 21 -25 21 -33 0 -44 72
-133 120 -148 20 -6 76 -112 65 -123 -8 -9 -81 45 -134 99 -60 61 -112 161
-141 271 -23 90 -25 111 -7 138 10 18 13 11 19 -54 4 -41 13 -88 21 -103z
m1617 -948 l0 -105 -265 0 -265 0 0 105 0 105 265 0 265 0 0 -105z m265 -189
c304 -88 526 -324 600 -638 l13 -58 -61 -44 c-271 -190 -622 -302 -1012 -321
-369 -19 -740 84 -1058 291 -145 94 -147 96 -135 147 53 240 217 451 437 562
159 80 197 84 716 81 383 -2 448 -4 500 -20z"/>
<path d="M2015 3021 c-77 -19 -146 -82 -175 -158 -18 -48 -20 -78 -20 -266 1
-228 5 -256 55 -327 18 -26 48 -50 88 -70 l60 -30 676 0 676 0 50 24 c28 12
65 40 84 61 64 73 66 85 66 345 0 225 -1 237 -23 282 -13 26 -41 63 -62 82
-74 66 -69 66 -794 65 -358 -1 -664 -4 -681 -8z m332 -247 c61 -46 80 -117 50
-186 -24 -56 -69 -80 -139 -75 -62 4 -96 25 -124 79 -66 127 99 269 213 182z
m839 -18 c41 -40 44 -47 44 -95 0 -64 -19 -103 -65 -131 -30 -18 -47 -22 -92
-18 -50 4 -60 9 -95 46 -33 35 -38 48 -38 87 0 51 16 89 52 121 30 28 43 32
102 33 45 1 52 -3 92 -43z"/>
<path d="M2218 2744 c-94 -51 -60 -189 47 -189 105 0 142 131 53 185 -39 24
-63 25 -100 4z"/>
<path d="M3033 2740 c-42 -25 -59 -77 -40 -122 18 -44 38 -59 86 -65 36 -5 44
-2 76 30 26 26 35 43 35 69 0 80 -88 130 -157 88z"/>
<path d="M2373 2033 c-19 -4 -23 -11 -23 -43 0 -90 75 -190 179 -239 47 -22
70 -26 146 -26 76 0 99 4 145 26 31 14 72 41 93 58 41 37 82 116 92 177 6 38
4 42 -18 46 -32 6 -586 7 -614 1z m581 -70 c-32 -132 -187 -222 -331 -193 -77
16 -122 40 -167 90 -35 39 -44 55 -60 108 l-7 22 286 0 285 0 -6 -27z"/>
</g>
</svg>
