<svg width="62" height="58" viewBox="0 0 62 58" fill="none" xmlns="http://www.w3.org/2000/svg">
<path d="M4.42554 28.7695C4.42487 24.4965 5.54905 20.2987 7.68508 16.598C9.82111 12.8973 12.8937 9.8241 16.594 7.68735C20.2943 5.5506 24.4919 4.42559 28.7648 4.42543C33.0377 4.42526 37.2354 5.54994 40.9359 7.6864C41.4438 7.9752 42.0454 8.05136 42.6093 7.89827C43.1732 7.74517 43.6537 7.37525 43.9458 6.86922C44.238 6.36319 44.3182 5.76214 44.1688 5.19724C44.0195 4.63233 43.6527 4.14943 43.1486 3.85392C37.6648 0.687835 31.2896 -0.580337 25.0116 0.246075C18.7335 1.07249 12.9036 3.9473 8.42598 8.42467C3.94832 12.902 1.07313 18.7318 0.246316 25.0097C-0.580499 31.2877 0.687265 37.663 3.85299 43.147C7.01872 48.6311 11.9055 52.9173 17.7555 55.341C23.6054 57.7646 30.0917 58.1903 36.2082 56.5521C42.3248 54.9138 47.7299 51.303 51.5852 46.2798C55.4405 41.2566 57.5307 35.1016 57.5315 28.7695C57.5315 28.1826 57.2984 27.6198 56.8834 27.2048C56.4684 26.7898 55.9056 26.5567 55.3188 26.5567C54.7319 26.5567 54.1691 26.7898 53.7541 27.2048C53.3391 27.6198 53.106 28.1826 53.106 28.7695C53.106 35.2249 50.5416 41.4159 45.9769 45.9806C41.4122 50.5453 35.2212 53.1097 28.7658 53.1097C22.3103 53.1097 16.1193 50.5453 11.5546 45.9806C6.98995 41.4159 4.42554 35.2249 4.42554 28.7695Z" fill="#00A550"/>
<path d="M61.351 8.2469C61.5567 8.04137 61.7199 7.79738 61.8313 7.52884C61.9426 7.26031 61.9999 6.9725 61.9999 6.68184C61.9999 6.39118 61.9426 6.10337 61.8313 5.83483C61.7199 5.5663 61.5567 5.3223 61.351 5.11678C61.1453 4.91125 60.901 4.74822 60.6322 4.63699C60.3634 4.52576 60.0753 4.46851 59.7843 4.46851C59.4934 4.46851 59.2052 4.52576 58.9364 4.63699C58.6676 4.74822 58.4234 4.91125 58.2176 5.11678L28.8048 34.5037L17.0946 22.8011C16.8888 22.5956 16.6446 22.4325 16.3758 22.3213C16.1069 22.2101 15.8188 22.1528 15.5279 22.1528C15.2369 22.1528 14.9488 22.2101 14.68 22.3213C14.4112 22.4325 14.1669 22.5956 13.9612 22.8011C13.7555 23.0066 13.5923 23.2506 13.4809 23.5191C13.3696 23.7877 13.3123 24.0755 13.3123 24.3661C13.3123 24.6568 13.3696 24.9446 13.4809 25.2132C13.5923 25.4817 13.7555 25.7257 13.9612 25.9312L27.2381 39.1944C27.4437 39.4003 27.6879 39.5636 27.9567 39.6751C28.2255 39.7865 28.5137 39.8439 28.8048 39.8439C29.0959 39.8439 29.3841 39.7865 29.6529 39.6751C29.9217 39.5636 30.1659 39.4003 30.3715 39.1944L61.351 8.2469Z" fill="#00A550"/>
</svg>
