<svg width="55" height="55" viewBox="0 0 55 55" fill="none" xmlns="http://www.w3.org/2000/svg">
<path d="M55 27.5C55 34.7935 52.1027 41.7882 46.9454 46.9454C41.7882 52.1027 34.7935 55 27.5 55C20.2065 55 13.2118 52.1027 8.05456 46.9454C2.89731 41.7882 0 34.7935 0 27.5C0 20.2065 2.89731 13.2118 8.05456 8.05456C13.2118 2.89731 20.2065 0 27.5 0C34.7935 0 41.7882 2.89731 46.9454 8.05456C52.1027 13.2118 55 20.2065 55 27.5ZM18.4044 15.9706C18.0816 15.6479 17.6439 15.4666 17.1875 15.4666C16.7311 15.4666 16.2934 15.6479 15.9706 15.9706C15.6479 16.2934 15.4666 16.7311 15.4666 17.1875C15.4666 17.6439 15.6479 18.0816 15.9706 18.4044L25.0697 27.5L15.9706 36.5956C15.8108 36.7554 15.6841 36.9451 15.5976 37.1539C15.5111 37.3627 15.4666 37.5865 15.4666 37.8125C15.4666 38.0385 15.5111 38.2623 15.5976 38.4711C15.6841 38.6799 15.8108 38.8696 15.9706 39.0294C16.2934 39.3521 16.7311 39.5334 17.1875 39.5334C17.4135 39.5334 17.6373 39.4889 17.8461 39.4024C18.0549 39.3159 18.2446 39.1892 18.4044 39.0294L27.5 29.9303L36.5956 39.0294C36.7554 39.1892 36.9451 39.3159 37.1539 39.4024C37.3627 39.4889 37.5865 39.5334 37.8125 39.5334C38.0385 39.5334 38.2623 39.4889 38.4711 39.4024C38.6799 39.3159 38.8696 39.1892 39.0294 39.0294C39.1892 38.8696 39.3159 38.6799 39.4024 38.4711C39.4889 38.2623 39.5334 38.0385 39.5334 37.8125C39.5334 37.5865 39.4889 37.3627 39.4024 37.1539C39.3159 36.9451 39.1892 36.7554 39.0294 36.5956L29.9303 27.5L39.0294 18.4044C39.1892 18.2446 39.3159 18.0549 39.4024 17.8461C39.4889 17.6373 39.5334 17.4135 39.5334 17.1875C39.5334 16.9615 39.4889 16.7377 39.4024 16.5289C39.3159 16.3201 39.1892 16.1304 39.0294 15.9706C38.8696 15.8108 38.6799 15.6841 38.4711 15.5976C38.2623 15.5111 38.0385 15.4666 37.8125 15.4666C37.5865 15.4666 37.3627 15.5111 37.1539 15.5976C36.9451 15.6841 36.7554 15.8108 36.5956 15.9706L27.5 25.0697L18.4044 15.9706Z" fill="#F0232B"/>
</svg>
